# xmcd
#
# Track frame offsets:
#	150
#	15675
#	28950
#	42450
#	57225
#	72525
#	86475
#	102525
#	113775
#	128325
#	146925
#	160500
#	175875
#	190875
#
# Disc length: 2742
#
# Revision: 2
# Processed by: cddbd v1.5.1PL0 Copyright (c) Steve Scherf et al.
# Submitted via: OrangeCD 4.3
# Normalized: r1:DSETVAR1
#
DISCID=c50ab40e
DTITLE=Various Artist - No 1 Countrty Ladies  -  14 Country No 1's
DYEAR=1989
DGENRE=Country
TTITLE0=Dolly Parton - Old Flames
TTITLE1=Crystal Gayle - Talking In Your Sleep
TTITLE2=Lynn Anderson - Keep Me In Mind
TTITLE3=Rosanne Cash - My Baby Thinks He's A Train
TTITLE4=Sylvia - Nobody
TTITLE5=Tanya Tucker - Blood Red And Goin' Down
TTITLE6=The Judds - Maybe Your Baby's Got The Blues
TTITLE7=Tammy Wynette - The Ways To Love A Man
TTITLE8=Charly McClain - Radio Heart
TTITLE9=Juice Newton - You Make Me Want To Make You Mine
TTITLE10=Janie Fricke - He's A Headache  ( Looking For A Place To Happen )
TTITLE11=Jessi Colter - I'm Not Lisa
TTITLE12=Crystal Gayle - If You Ever Change Your Mind
TTITLE13=Cristy Lane - One Day At A Time
EXTD=
EXTT0=Dolly Parton
EXTT1=Crystal Gayle
EXTT2=Lynn Anderson
EXTT3=Rosanne Cash
EXTT4=Sylvia
EXTT5=Tanya Tucker
EXTT6=The Judds
EXTT7=Tammy Wynette
EXTT8=Charly McClain
EXTT9=Juice Newton
EXTT10=Janie Frickle
EXTT11=Jessi Colter
EXTT12=Crystal Gayle
EXTT13=Cristy Lane
PLAYORDER=
